<svg xmlns="http://www.w3.org/2000/svg" xmlns:xlink="http://www.w3.org/1999/xlink" version="1.1" id="Layer_1" x="0px" y="0px" viewBox="0 0 100 100" enable-background="new 0 0 100 100" xml:space="preserve" height="100px" width="100px">
<path d="M94.871,40.26c-0.161-0.144-0.407-0.131-0.55,0.029l-8.136,9.056c-0.167-10.599-4.362-20.54-11.876-28.054  C66.641,13.623,56.445,9.4,45.6,9.4c-10.845,0-21.04,4.223-28.709,11.891C9.223,28.96,5,39.155,5,50  c0,10.845,4.223,21.04,11.892,28.709C24.56,86.377,34.755,90.6,45.6,90.6c10.844,0,21.04-4.223,28.709-11.892  c0.152-0.152,0.152-0.399,0-0.551c-0.152-0.152-0.399-0.152-0.551,0C66.236,85.679,56.236,89.821,45.6,89.821  c-10.636,0-20.636-4.142-28.158-11.663C9.922,70.636,5.779,60.636,5.779,50s4.142-20.636,11.663-28.158  c7.521-7.521,17.521-11.663,28.158-11.663c10.636,0,20.636,4.142,28.157,11.663c7.369,7.369,11.484,17.119,11.648,27.515  l-8.147-9.069c-0.144-0.16-0.39-0.174-0.55-0.029c-0.16,0.144-0.173,0.39-0.029,0.55l9.111,10.141L94.9,40.81  C95.044,40.65,95.031,40.403,94.871,40.26z"/>
</svg>